<?xml version="1.0" encoding="UTF-8"?>
<svg xmlns="http://www.w3.org/2000/svg" xmlns:xlink="http://www.w3.org/1999/xlink" width="470px" height="470px" viewBox="0 0 470 470" version="1.1">
<g id="surface1">
<path style=" stroke:none;fill-rule:nonzero;fill:rgb(0%,0%,0%);fill-opacity:1;" d="M 217.230469 23.625 C 212 25.089844 205.101562 28.433594 201.546875 30.734375 C 198.203125 33.242188 157.640625 73.175781 111.644531 119.589844 C 36.589844 194.859375 27.390625 204.894531 24.253906 214.09375 C 20.070312 227.054688 20.070312 235.210938 24.042969 246.917969 C 28.851562 260.089844 32.617188 263.433594 42.859375 263.433594 C 54.359375 263.433594 55.40625 260.296875 48.921875 248.171875 C 42.023438 235 42.234375 224.335938 49.96875 214.09375 C 53.3125 209.703125 92.621094 169.558594 137.363281 124.816406 L 218.691406 43.90625 L 239.390625 43.90625 L 327.410156 132.136719 C 397.03125 201.964844 415.851562 222.039062 417.105469 227.265625 C 420.238281 242.734375 418.777344 244.617188 357.726562 305.25 C 325.949219 337.027344 296.050781 366.507812 291.03125 370.898438 L 282.25 378.84375 L 282.25 261.761719 L 290.195312 260.296875 C 303.160156 258 334.519531 245.035156 343.71875 238.34375 C 360.863281 225.589844 367.972656 207.402344 364.835938 184.195312 C 363.164062 171.230469 357.9375 162.660156 346.644531 154.714844 C 321.347656 136.316406 279.324219 139.242188 254.652344 160.988281 C 242.109375 171.859375 231.238281 192.140625 233.953125 199.25 C 236.253906 204.894531 242.109375 207.820312 247.335938 205.9375 C 249.007812 205.101562 254.027344 199.039062 258.207031 192.140625 C 271.796875 169.976562 292.914062 160.152344 315.910156 164.960938 C 330.128906 168.097656 337.65625 173.742188 341.835938 184.820312 C 345.601562 194.859375 344.136719 205.519531 337.445312 215.136719 C 333.683594 220.574219 310.894531 231.863281 293.332031 236.882812 L 282.25 240.226562 L 282.25 221.410156 C 282.25 205.519531 281.625 202.175781 278.070312 198.621094 C 272.632812 193.183594 270.542969 193.394531 264.480469 199.667969 C 259.671875 204.265625 259.253906 206.148438 259.253906 225.589844 L 259.253906 246.289062 L 250.472656 247.753906 C 239.390625 249.636719 234.164062 254.027344 234.164062 261.34375 C 234.164062 270.125 238.761719 272.84375 249.84375 270.332031 L 259.253906 268.242188 L 259.253906 351.453125 C 259.253906 441.773438 259.253906 441.148438 270.75 441.148438 C 277.859375 441.148438 282.25 433.621094 282.25 421.914062 L 282.25 412.085938 L 356.472656 338.28125 C 437.175781 258 439.058594 255.488281 439.058594 233.117188 C 439.058594 213.046875 434.875 208.03125 342.046875 114.992188 C 295.214844 67.949219 253.816406 28.226562 250.054688 26.550781 C 240.226562 21.742188 227.890625 20.90625 217.230469 23.625 Z M 217.230469 23.625 "/>
<path style=" stroke:none;fill-rule:nonzero;fill:rgb(0%,0%,0%);fill-opacity:1;" d="M 217.019531 82.585938 C 210.746094 86.976562 204.894531 96.382812 204.894531 102.65625 C 204.894531 103.699219 210.121094 104.539062 216.390625 104.539062 L 227.890625 104.539062 L 227.683594 94.5 C 227.683594 89.066406 226.847656 83.003906 226.21875 80.910156 C 224.753906 77.566406 224.128906 77.777344 217.019531 82.585938 Z M 217.019531 82.585938 "/>
<path style=" stroke:none;fill-rule:nonzero;fill:rgb(0%,0%,0%);fill-opacity:1;" d="M 238.34375 90.949219 L 238.34375 104.539062 L 249.84375 104.539062 C 263.015625 104.539062 264.269531 102.027344 257.160156 90.53125 C 253.816406 84.882812 243.570312 77.359375 239.390625 77.359375 C 238.761719 77.359375 238.34375 83.421875 238.34375 90.949219 Z M 238.34375 90.949219 "/>
<path style=" stroke:none;fill-rule:nonzero;fill:rgb(0%,0%,0%);fill-opacity:1;" d="M 204.894531 125.234375 L 204.894531 135.898438 L 228.101562 135.898438 L 227.472656 125.863281 L 226.847656 116.035156 L 215.972656 115.410156 L 204.894531 114.78125 Z M 204.894531 125.234375 "/>
<path style=" stroke:none;fill-rule:nonzero;fill:rgb(0%,0%,0%);fill-opacity:1;" d="M 238.34375 125.445312 L 238.34375 135.898438 L 261.34375 135.898438 L 261.34375 114.992188 L 238.34375 114.992188 Z M 238.34375 125.445312 "/>
<path style=" stroke:none;fill-rule:nonzero;fill:rgb(0%,0%,0%);fill-opacity:1;" d="M 425.46875 117.5 C 425.050781 118.964844 424.210938 125.445312 424.003906 131.71875 L 423.375 143.214844 L 412.714844 142.589844 C 404.976562 141.960938 401.214844 142.796875 398.496094 145.308594 C 391.597656 152.414062 395.777344 156.386719 410.832031 157.222656 L 423.375 157.851562 L 424.003906 169.769531 C 424.421875 178.757812 425.675781 182.3125 428.394531 183.777344 C 434.667969 187.332031 437.382812 183.148438 437.800781 170.1875 L 438.011719 157.851562 L 451.601562 156.804688 C 462.683594 155.96875 465.191406 155.132812 465.820312 151.789062 C 467.074219 145.726562 463.101562 143.632812 450.136719 143.425781 L 438.21875 143.214844 L 438.847656 132.136719 C 439.058594 125.652344 438.21875 119.800781 436.964844 117.917969 C 433.828125 114.363281 426.722656 113.945312 425.46875 117.5 Z M 425.46875 117.5 "/>
<path style=" stroke:none;fill-rule:nonzero;fill:rgb(0%,0%,0%);fill-opacity:1;" d="M 187.332031 155.132812 C 184.613281 159.105469 183.984375 167.886719 183.984375 209.492188 L 183.984375 259.253906 L 179.386719 260.296875 C 169.976562 262.390625 135.0625 267.617188 134.433594 266.78125 C 134.015625 266.359375 133.597656 243.570312 133.597656 216.183594 C 133.390625 162.03125 132.554688 156.804688 122.308594 156.804688 C 111.226562 156.804688 110.808594 158.898438 110.808594 217.230469 L 110.808594 271.171875 L 99.9375 272.632812 C 93.875 273.261719 71.085938 274.515625 49.132812 275.140625 C 27.390625 275.980469 8.152344 277.441406 6.898438 278.695312 C 2.507812 282.042969 3.761719 292.078125 8.78125 295.632812 C 15.679688 300.441406 58.75 299.605469 102.027344 293.75 L 110.808594 292.496094 L 110.808594 328.039062 C 110.808594 361.070312 111.226562 364.207031 114.992188 367.972656 C 120.007812 372.988281 123.144531 373.199219 128.789062 369.226562 C 132.34375 366.507812 132.761719 362.746094 133.808594 328.039062 L 134.851562 289.777344 L 156.804688 286.222656 C 168.933594 284.132812 180.011719 282.460938 181.476562 282.460938 C 183.359375 282.25 183.984375 296.675781 183.984375 347.480469 C 183.984375 416.894531 184.820312 424.839844 193.8125 436.757812 C 203.847656 449.929688 228.308594 455.78125 242.527344 448.464844 C 248.378906 445.328125 248.800781 444.492188 248.800781 432.785156 L 248.800781 420.238281 L 240.4375 424.421875 C 228.9375 430.277344 218.484375 429.859375 212.210938 423.375 L 206.984375 418.359375 L 206.984375 289.148438 C 206.984375 148.441406 207.191406 150.535156 195.484375 150.535156 C 192.765625 150.535156 189.003906 152.625 187.332031 155.132812 Z M 187.332031 155.132812 "/>
</g>
</svg>